<svg xmlns="http://www.w3.org/2000/svg" width="1200" height="675" viewBox="0 0 1200 675" role="img" aria-labelledby="t d"><title id="t">Voice recording and playback</title><desc id="d">Sanitised waveform and playback progress</desc><rect width="1200" height="675" rx="28" fill="#0b1220"/><text x="70" y="90" fill="#fff" font-family="system-ui" font-size="34" font-weight="700">VOICE RECORDING / PLAYBACK</text><rect x="70" y="160" width="1060" height="360" rx="24" fill="#182238"/><g stroke="#8b5cf6" stroke-width="12" stroke-linecap="round"><path d="M150 350v-70M195 350v-130M240 350v-210M285 350v-100M330 350v-260M375 350v-150M420 350v-220M465 350v-90M510 350v-180M555 350v-250M600 350v-120M645 350v-210M690 350v-80M735 350v-170M780 350v-230M825 350v-110M870 350v-190M915 350v-140M960 350v-240M1005 350v-100"/></g><text x="100" y="575" fill="#a5b4fc" font-family="system-ui" font-size="24">00:06 / 00:12 · 1× · stop / cancel</text></svg>